HIERARCHY
ROOT Hips
{
	OFFSET 0.000000 0.000000 0.000000
	CHANNELS 6 Xposition Yposition Zposition Xrotation Yrotation Zrotation
	JOINT LeftUpLeg_virtual
	{
		OFFSET 0.000000 0.000000 0.000000
		CHANNELS 3 Xrotation Yrotation Zrotation
		JOINT LeftUpLeg
		{
			OFFSET 15.427100 -6.655098 0.678600
			CHANNELS 3 Xrotation Yrotation Zrotation
			JOINT LeftLeg
			{
				OFFSET 4.081073 -39.591068 13.024000
				CHANNELS 3 Xrotation Yrotation Zrotation
				JOINT LeftFoot
				{
					OFFSET -4.081074 -37.707932 -15.979700
					CHANNELS 3 Xrotation Yrotation Zrotation
					JOINT LeftToeBase
					{
						OFFSET 5.346399 -15.068900 20.645000
						CHANNELS 3 Xrotation Yrotation Zrotation
						JOINT LeftToe_End
						{
							OFFSET 2.754700 0.931300 11.300900
							CHANNELS 3 Xrotation Yrotation Zrotation
							End Site
							{
								OFFSET 0 0 0
							}
						}
					}
				}
			}
		}
	}
	JOINT RightUpLeg_virtual
	{
		OFFSET 0.000000 0.000000 0.000000
		CHANNELS 3 Xrotation Yrotation Zrotation
		JOINT RightUpLeg
		{
			OFFSET -15.569500 -6.655098 0.678600
			CHANNELS 3 Xrotation Yrotation Zrotation
			JOINT RightLeg
			{
				OFFSET -4.081825 -39.591045 13.023800
				CHANNELS 3 Xrotation Yrotation Zrotation
				JOINT RightFoot
				{
					OFFSET 4.081824 -37.707954 -15.979600
					CHANNELS 3 Xrotation Yrotation Zrotation
					JOINT RightToeBase
					{
						OFFSET -5.346400 -15.068900 20.645000
						CHANNELS 3 Xrotation Yrotation Zrotation
						JOINT RightToe_End
						{
							OFFSET -2.754700 0.931300 11.300900
							CHANNELS 3 Xrotation Yrotation Zrotation
							End Site
							{
								OFFSET 0 0 0
							}
						}
					}
				}
			}
		}
	}
	JOINT Spine_virtual
	{
		OFFSET 0.000000 0.000000 0.000000
		CHANNELS 3 Xrotation Yrotation Zrotation
		JOINT Spine
		{
			OFFSET -0.279200 12.230698 -2.892100
			CHANNELS 3 Xrotation Yrotation Zrotation
			JOINT Spine1
			{
				OFFSET -0.232667 10.192268 -1.242267
				CHANNELS 3 Xrotation Yrotation Zrotation
				JOINT Spine1_split
				{
					OFFSET -0.232667 10.192268 -1.242267
					CHANNELS 3 Xrotation Yrotation Zrotation
					JOINT Spine2
					{
						OFFSET -0.232667 10.192268 -1.242267
						CHANNELS 3 Xrotation Yrotation Zrotation
						JOINT Neck_virtual
						{
							OFFSET 0.000000 0.000000 0.000000
							CHANNELS 3 Xrotation Yrotation Zrotation
							JOINT Neck
							{
								OFFSET -0.418800 17.814194 8.416900
								CHANNELS 3 Xrotation Yrotation Zrotation
								JOINT Head
								{
									OFFSET 0.000000 7.031097 3.806800
									CHANNELS 3 Xrotation Yrotation Zrotation
									JOINT HeadTop_End
									{
										OFFSET 0.000000 24.646606 12.978600
										CHANNELS 3 Xrotation Yrotation Zrotation
										End Site
										{
											OFFSET 0 0 0
										}
									}
								}
							}
						}
						JOINT LeftShoulder_virtual
						{
							OFFSET 0.000000 0.000000 0.000000
							CHANNELS 3 Xrotation Yrotation Zrotation
							JOINT LeftShoulder
							{
								OFFSET 8.476499 7.247704 -3.868750
								CHANNELS 3 Xrotation Yrotation Zrotation
								JOINT LeftShoulder_split
								{
									OFFSET 8.476499 7.247704 -3.868750
									CHANNELS 3 Xrotation Yrotation Zrotation
									JOINT LeftArm
									{
										OFFSET 9.308998 -2.777710 0.208600
										CHANNELS 3 Xrotation Yrotation Zrotation
										JOINT LeftForeArm
										{
											OFFSET 29.972298 0.000000 0.000000
											CHANNELS 3 Xrotation Yrotation Zrotation
											JOINT LeftHand
											{
												OFFSET 26.026505 0.000000 0.000000
												CHANNELS 3 Xrotation Yrotation Zrotation
												End Site
												{
													OFFSET 0 0 0
												}
											}
										}
									}
								}
							}
						}
						JOINT RightShoulder_virtual
						{
							OFFSET 0.000000 0.000000 0.000000
							CHANNELS 3 Xrotation Yrotation Zrotation
							JOINT RightShoulder
							{
								OFFSET -7.570500 7.247704 -3.868750
								CHANNELS 3 Xrotation Yrotation Zrotation
								JOINT RightShoulder_split
								{
									OFFSET -7.570500 7.247704 -3.868750
									CHANNELS 3 Xrotation Yrotation Zrotation
									JOINT RightArm
									{
										OFFSET -9.308998 -2.777710 0.208500
										CHANNELS 3 Xrotation Yrotation Zrotation
										JOINT RightForeArm
										{
											OFFSET -29.972300 0.000000 0.000000
											CHANNELS 3 Xrotation Yrotation Zrotation
											JOINT RightHand
											{
												OFFSET -26.026505 0.000000 0.000000
												CHANNELS 3 Xrotation Yrotation Zrotation
												End Site
												{
													OFFSET 0 0 0
												}
											}
										}
									}
								}
							}
						}
					}
				}
			}
		}
	}
}
MOTION
Frames: 11
Frame Time: 0.03333333
-23.834013 128.098755 32.079578 0.000000 0.000000 0.000000 6.784048 -18.622290 2.081065 -17.510882 9.294980 4.869142 25.070057 11.965998 6.275512 17.035187 -0.503344 -0.087267 2.956548 0.690575 0.730411 0.000000 0.000000 0.000000 5.799205 -17.544140 1.472998 1.018328 -5.229873 -5.158712 11.537244 -14.309899 3.693955 24.724216 -0.126540 -2.231117 10.907483 -0.803232 -0.201662 0.000000 0.000000 0.000000 5.887764 -15.852215 1.568364 -0.600560 3.891001 3.026840 -5.209290 1.179065 -1.617925 2.227800 -2.804135 0.467579 0.000000 0.000000 0.000000 -0.719268 1.277129 -2.385590 -27.756963 2.407995 -0.555707 -6.924506 3.765012 4.311279 0.000000 0.000000 0.000000 -3.719063 1.244897 -1.756932 4.474030 -3.346819 22.195458 4.496588 6.612094 0.751403 -56.276633 -24.669125 24.022397 -23.901902 -46.870684 9.480751 0.000000 0.000000 0.000000 -3.582085 0.725662 -1.349002 -4.548432 -11.272601 -26.386525 -0.584213 -2.235073 -2.138750 -84.578192 35.012964 33.383752 -31.602042 43.680477 -3.938346 0.000000 0.000000 0.000000 
-24.008762 125.225380 33.257908 0.000000 0.000000 0.000000 5.765059 -16.639432 1.248587 -20.614749 9.790878 5.325052 27.518747 12.252593 5.650158 25.225267 -1.215231 1.396113 4.621705 0.882622 0.624085 0.000000 0.000000 0.000000 5.355543 -14.539166 0.746972 -0.365398 -6.531409 -7.263026 14.213478 -11.892745 4.246547 28.968062 2.203233 -1.156825 9.130471 0.052671 -0.218664 0.000000 0.000000 0.000000 4.452189 -14.194914 0.712922 -0.160119 4.180979 3.303159 -5.506003 1.084572 -1.271668 2.640325 -3.072561 0.807814 0.000000 0.000000 0.000000 -1.538969 1.238997 -1.886678 -27.244052 1.631535 -1.442786 -7.522602 2.238720 4.399764 0.000000 0.000000 0.000000 -4.295307 1.106706 -1.355939 5.307695 -2.328778 24.485432 3.627468 5.062440 1.805984 -52.043323 -18.843879 19.949907 -20.370494 -51.098790 11.679736 0.000000 0.000000 0.000000 -4.292001 0.705427 -0.847840 -2.331450 -9.460264 -24.075508 -1.476074 -2.983316 -2.114141 -79.717740 39.465796 31.363833 -30.701878 39.408860 0.024847 0.000000 0.000000 0.000000 
-24.156748 122.076324 34.737823 0.000000 0.000000 0.000000 4.570060 -15.082005 0.590010 -22.968552 9.999026 5.466746 29.450376 12.585470 5.471385 31.821814 -1.647428 4.129610 6.105846 0.954624 0.359500 0.000000 0.000000 0.000000 4.740566 -11.524151 0.184803 -1.263025 -7.192314 -8.217070 16.199785 -10.214383 4.287297 32.335628 3.460367 -0.286221 7.472650 0.773277 0.230044 0.000000 0.000000 0.000000 2.684634 -12.812248 0.083785 0.317622 4.338669 3.422147 -5.834214 0.960636 -0.847379 2.557244 -3.052103 0.763022 0.000000 0.000000 0.000000 -2.627842 1.181196 -1.316037 -26.505082 1.291773 -2.547574 -7.459977 0.768899 4.346316 0.000000 0.000000 0.000000 -4.887016 0.959540 -0.881673 5.638074 -0.201583 27.333497 2.557088 3.185671 2.535445 -49.325171 -16.134507 14.807905 -19.253439 -51.310266 12.120761 0.000000 0.000000 0.000000 -5.277626 0.680558 -0.271634 -0.395200 -6.958598 -23.691204 -1.843594 -3.281094 -1.764467 -75.485564 41.305525 28.407397 -29.445147 33.735213 2.607101 0.000000 0.000000 0.000000 
-24.374823 119.463318 36.497044 0.000000 0.000000 0.000000 3.338962 -13.987918 0.193854 -23.776616 9.882443 4.980622 30.633463 13.206045 5.911184 35.268976 -1.347317 7.476609 7.591241 0.964310 -0.105167 0.000000 0.000000 0.000000 4.031219 -9.207970 -0.069456 -1.654279 -7.316680 -8.006676 17.216195 -9.839845 4.017136 34.430939 2.815985 -0.523645 7.310089 1.250731 1.173270 0.000000 0.000000 0.000000 1.078207 -11.763193 -0.210841 0.640684 4.408019 3.402446 -6.253092 0.860538 -0.441480 1.941386 -2.557130 0.433979 0.000000 0.000000 0.000000 -3.843394 1.125591 -0.801722 -25.424671 1.091354 -3.711518 -6.792480 -0.440119 4.173129 0.000000 0.000000 0.000000 -5.510466 0.854342 -0.454214 5.570785 2.270619 30.394984 1.711627 1.543581 2.923587 -48.763910 -16.506452 9.925486 -20.958722 -47.782255 10.481280 0.000000 0.000000 0.000000 -6.400875 0.692923 0.262273 1.125471 -4.430967 -25.279667 -1.823487 -2.858565 -1.128275 -73.675967 40.884553 26.104659 -28.019441 28.080156 3.895661 0.000000 0.000000 0.000000 
-24.669487 117.798836 38.421921 0.000000 0.000000 0.000000 2.274913 -13.133922 0.023805 -22.802672 9.584653 4.081333 30.829442 13.977872 6.756475 35.999612 -0.591096 10.071047 8.302315 0.958527 -0.560446 0.000000 0.000000 0.000000 3.131366 -7.776629 -0.056743 -1.700857 -6.970061 -6.966071 17.291771 -10.419245 3.516941 35.725024 0.875731 -1.007618 6.951938 1.425232 2.268506 0.000000 0.000000 0.000000 -0.091567 -10.943891 -0.144286 0.671660 4.386881 3.261116 -6.793660 0.797286 -0.165861 1.368022 -1.959371 0.037771 0.000000 0.000000 0.000000 -5.041562 1.055287 -0.448207 -23.984500 0.794758 -4.754665 -5.608687 -1.259574 3.916661 0.000000 0.000000 0.000000 -6.161696 0.835418 -0.222477 5.324353 4.429612 33.187333 1.379601 0.290138 2.770361 -50.376931 -19.472161 5.755828 -23.908411 -41.945390 8.009989 0.000000 0.000000 0.000000 -7.377896 0.759468 0.621672 2.214636 -2.518151 -28.404154 -1.728395 -1.902343 -0.040324 -74.361116 39.170179 24.994640 -26.648555 23.850404 4.255236 0.000000 0.000000 0.000000 
-25.069389 117.099663 40.556908 0.000000 0.000000 0.000000 1.258675 -12.252887 0.071591 -20.859355 9.399936 3.164862 30.116678 14.693603 7.594265 35.199383 0.079274 11.295633 7.649026 0.996266 -0.712020 0.000000 0.000000 0.000000 2.076221 -7.021955 0.144301 -1.687355 -6.435796 -5.688008 17.224677 -11.316830 3.122869 37.351166 -1.130300 -0.674736 4.445925 1.292424 3.137076 0.000000 0.000000 0.000000 -0.756615 -10.170931 0.204605 0.425562 4.289221 3.042461 -7.432259 0.747569 -0.048369 0.700975 -1.325746 -0.201886 0.000000 0.000000 0.000000 -6.122833 0.973431 -0.308619 -22.186906 0.386138 -5.518845 -4.026470 -1.659132 3.625465 0.000000 0.000000 0.000000 -6.831824 0.889088 -0.222768 5.136677 5.884377 35.279040 1.625461 -0.276788 2.083099 -53.201945 -23.519449 2.490133 -26.626275 -35.768007 5.839155 0.000000 0.000000 0.000000 -8.121243 0.878224 0.744151 2.837062 -1.502588 -32.242232 -1.468201 -0.507331 1.154392 -76.305282 36.947495 24.741674 -25.512696 22.003079 4.071058 0.000000 0.000000 0.000000 
-25.615812 117.149078 42.610645 0.000000 0.000000 0.000000 0.324952 -11.339328 0.255917 -18.730395 9.869726 2.603026 28.986268 15.247562 8.064620 34.038412 0.559262 11.148585 6.317586 1.060502 -0.606451 0.000000 0.000000 0.000000 1.036813 -6.515760 0.477610 -1.459876 -6.053674 -4.693712 16.725897 -11.817820 2.880548 39.170261 -1.937145 0.926062 0.536615 0.995510 3.526952 0.000000 0.000000 0.000000 -1.021671 -9.415690 0.696159 -0.012681 4.112944 2.844423 -8.109820 0.685528 -0.091686 0.491086 -0.695048 -0.157372 0.000000 0.000000 0.000000 -7.020128 0.885741 -0.361539 -20.302218 -0.102637 -5.980957 -2.311392 -1.579838 3.281667 0.000000 0.000000 0.000000 -7.500837 0.980223 -0.442110 5.210070 6.497969 36.423842 2.789504 -0.184295 1.149574 -56.107846 -27.387201 0.025897 -28.463509 -31.056194 4.257973 0.000000 0.000000 0.000000 -8.580087 1.028005 0.641339 3.104584 -1.272740 -35.859757 -1.124329 0.966604 2.261144 -77.972572 34.783524 24.899576 -24.541170 22.481969 3.625331 0.000000 0.000000 0.000000 
-26.218758 117.434631 44.681698 0.000000 0.000000 0.000000 -0.523215 -10.477333 0.483530 -17.095349 11.274084 2.432640 27.709647 15.768526 7.949503 32.904173 0.931776 10.276927 5.059370 1.125741 -0.302587 0.000000 0.000000 0.000000 0.086872 -6.061144 0.748964 -1.000215 -6.149569 -4.090164 15.624898 -11.857772 2.759365 39.933165 -1.573774 2.776797 -2.482821 0.753101 3.442422 0.000000 0.000000 0.000000 -1.188779 -8.735675 1.168638 -0.517003 3.838609 2.686503 -8.753763 0.595837 -0.225363 0.371939 -0.561881 0.149353 0.000000 0.000000 0.000000 -7.727124 0.777158 -0.513476 -18.449775 -0.507618 -6.174690 -0.665444 -1.069022 2.838599 0.000000 0.000000 0.000000 -8.120170 1.060077 -0.786474 5.586709 6.449485 36.663660 4.080891 0.476454 0.114239 -58.158405 -30.385415 -1.581313 -29.190821 -28.194924 3.329105 0.000000 0.000000 0.000000 -8.805258 1.150722 0.390634 3.111451 -1.613781 -38.637806 -0.651144 2.047975 3.015546 -78.358184 33.190174 24.973028 -23.746123 24.409933 3.032064 0.000000 0.000000 0.000000 
-26.823118 117.637405 46.328007 0.000000 0.000000 0.000000 -1.324891 -9.808228 0.698349 -16.222934 13.534661 2.540584 26.304594 16.351908 7.379876 31.722831 1.263923 9.499317 4.103155 1.206456 0.268981 0.000000 0.000000 0.000000 -0.705163 -5.436062 0.934687 -0.198359 -6.962009 -3.872102 14.406105 -11.965297 2.872744 39.145426 -0.947127 3.535954 -3.133785 0.732366 3.096499 0.000000 0.000000 0.000000 -1.433500 -8.204225 1.508668 -1.020892 3.483721 2.631422 -9.285142 0.504864 -0.358329 0.291742 -0.849228 0.381261 0.000000 0.000000 0.000000 -8.271071 0.677304 -0.674604 -16.807750 -0.733278 -6.214731 0.739710 -0.180785 2.312084 0.000000 0.000000 0.000000 -8.662659 1.089078 -1.105338 6.191168 5.938907 36.330247 5.231716 1.351857 -0.587687 -58.733787 -31.968014 -2.098054 -29.033864 -27.134545 2.958986 0.000000 0.000000 0.000000 -8.961425 1.217494 0.122081 3.071480 -2.237485 -40.256056 0.009887 2.697739 3.179540 -77.504185 32.297957 24.836530 -23.196567 26.882971 2.474116 0.000000 0.000000 0.000000 
-27.357821 117.593216 47.586395 0.000000 0.000000 0.000000 -1.918295 -9.501836 0.842412 -15.986189 16.095402 2.769199 25.166472 16.858618 6.668248 30.761082 1.588210 8.905754 3.561870 1.287430 0.931927 0.000000 0.000000 0.000000 -1.300580 -4.637357 1.006174 0.703936 -8.348579 -3.913541 13.237308 -12.317891 3.194662 37.408919 -0.659997 3.154705 -1.869401 0.855121 2.590284 0.000000 0.000000 0.000000 -1.821874 -7.798906 1.654098 -1.485919 3.090970 2.654584 -9.652783 0.456500 -0.436734 0.507199 -1.621473 0.470126 0.000000 0.000000 0.000000 -8.633783 0.591619 -0.741617 -15.507630 -0.728522 -6.215211 1.776592 1.029168 1.740392 0.000000 0.000000 0.000000 -9.113746 1.084064 -1.313329 6.924870 5.263949 35.828222 5.719519 2.403150 -0.956276 -58.239397 -32.518104 -1.854101 -28.166554 -27.206257 3.083093 0.000000 0.000000 0.000000 -9.095444 1.234738 -0.072287 3.139689 -2.903951 -40.758157 0.664838 2.953601 3.065190 -75.997329 32.304582 24.493077 -22.941142 29.068534 2.036124 0.000000 0.000000 0.000000 
-27.750631 117.348846 48.384766 0.000000 0.000000 0.000000 -2.189208 -9.379223 0.882768 -16.336614 18.178122 3.003241 24.344519 16.999509 6.045079 30.591785 1.765310 8.305428 3.130132 1.369189 1.672646 0.000000 0.000000 0.000000 -1.738738 -3.704635 0.966331 1.173838 -9.819948 -4.105789 12.346862 -12.651972 3.691251 35.688777 -0.452489 2.582283 -0.713947 0.965524 1.972260 0.000000 0.000000 0.000000 -2.209801 -7.478996 1.658499 -1.923457 2.697195 2.704301 -9.850548 0.478661 -0.421787 0.701438 -2.744971 0.435128 0.000000 0.000000 0.000000 -8.855151 0.552835 -0.677671 -14.481400 -0.501477 -6.196380 2.426701 2.478257 1.209319 0.000000 0.000000 0.000000 -9.476839 1.077722 -1.349525 7.607623 4.741560 35.548946 5.313640 3.213419 -0.776150 -57.135478 -32.370240 -1.230196 -26.905466 -27.488964 3.573608 0.000000 0.000000 0.000000 -9.262285 1.223540 -0.139747 3.398160 -3.478858 -40.415158 1.370658 3.160767 2.730387 -74.795797 33.007285 24.001234 -22.993963 30.426560 1.737415 0.000000 0.000000 0.000000 
